{
	"asset":{
		"version":"2.0",
		"generator":"Houdini GLTF 2.0 Exporter"
	},
	"accessors":[
		{
			"bufferView":0,
			"componentType":5123,
			"count":1080,
			"type":"SCALAR",
			"min":[0
			],
			"max":[1079
			]
		},
		{
			"bufferView":1,
			"componentType":5126,
			"count":1080,
			"type":"VEC3",
			"min":[-0.978147626,-1.5,-0.994521916
			],
			"max":[1,1.5,0.994521916
			]
		},
		{
			"bufferView":2,
			"componentType":5126,
			"count":1080,
			"type":"VEC2",
			"min":[0,0
			],
			"max":[1,1
			]
		},
		{
			"bufferView":3,
			"componentType":5126,
			"count":1080,
			"type":"VEC3",
			"min":[-0.978147626,-1,-0.994521976
			],
			"max":[1,1,0.994521976
			]
		}
	],
	"buffers":[
		{
			"uri":"capsule_data.bin",
			"byteLength":36720,
			"name":"main_buffer"
		}
	],
	"bufferViews":[
		{
			"buffer":0,
			"byteLength":2160,
			"target":34963
		},
		{
			"buffer":0,
			"byteOffset":2160,
			"byteLength":12960,
			"target":34962
		},
		{
			"buffer":0,
			"byteOffset":15120,
			"byteLength":8640,
			"target":34962
		},
		{
			"buffer":0,
			"byteOffset":23760,
			"byteLength":12960,
			"target":34962
		}
	],
	"nodes":[
		{
			"name":"geo1",
			"mesh":0
		}
	],
	"meshes":[
		{
			"primitives":[
				{
					"attributes":{
						"NORMAL":3,
						"TEXCOORD_0":2,
						"POSITION":1
					},
					"indices":0
				}
			]
		}
	],
	"scenes":[
		{
			"nodes":[0
			]
		}
	],
	"scene":0
}
