{
	"asset":{
		"version":"2.0",
		"generator":"Houdini GLTF 2.0 Exporter"
	},
	"accessors":[
		{
			"bufferView":0,
			"componentType":5123,
			"count":900,
			"type":"SCALAR",
			"min":[0
			],
			"max":[899
			]
		},
		{
			"bufferView":1,
			"componentType":5126,
			"count":900,
			"type":"VEC3",
			"min":[-0.5,-0.4755283,-0.050999999
			],
			"max":[0.5,0.4755283,0.382200003
			]
		},
		{
			"bufferView":2,
			"componentType":5126,
			"count":900,
			"type":"VEC2",
			"min":[0,0.0244717002
			],
			"max":[1,0.9755283
			]
		},
		{
			"bufferView":3,
			"componentType":5126,
			"count":900,
			"type":"VEC3",
			"min":[-1,-0.999777496,-1
			],
			"max":[1,0.991410673,1
			]
		}
	],
	"buffers":[
		{
			"uri":"torchship_data.bin",
			"byteLength":30600,
			"name":"main_buffer"
		}
	],
	"bufferViews":[
		{
			"buffer":0,
			"byteLength":1800,
			"target":34963
		},
		{
			"buffer":0,
			"byteOffset":1800,
			"byteLength":10800,
			"target":34962
		},
		{
			"buffer":0,
			"byteOffset":12600,
			"byteLength":7200,
			"target":34962
		},
		{
			"buffer":0,
			"byteOffset":19800,
			"byteLength":10800,
			"target":34962
		}
	],
	"nodes":[
		{
			"name":"sphere_object1",
			"mesh":0
		}
	],
	"meshes":[
		{
			"primitives":[
				{
					"attributes":{
						"NORMAL":3,
						"TEXCOORD_0":2,
						"POSITION":1
					},
					"indices":0
				}
			]
		}
	],
	"scenes":[
		{
			"nodes":[0
			]
		}
	],
	"scene":0
}
