{
	"asset":{
		"version":"2.0",
		"generator":"Houdini GLTF 2.0 Exporter"
	},
	"accessors":[
		{
			"bufferView":0,
			"componentType":5125,
			"count":1872936,
			"type":"SCALAR",
			"min":[0
			],
			"max":[1872935
			]
		},
		{
			"bufferView":1,
			"componentType":5126,
			"count":1872936,
			"type":"VEC3",
			"min":[-2.30912781,-1.128824,-1.03905582
			],
			"max":[0.199212074,0.914041996,0.959070206
			]
		},
		{
			"bufferView":2,
			"componentType":5126,
			"count":1872936,
			"type":"VEC2",
			"min":[0,5.96046448e-08
			],
			"max":[1,1
			]
		},
		{
			"bufferView":3,
			"componentType":5126,
			"count":1872936,
			"type":"VEC3",
			"min":[-1,-1,-1
			],
			"max":[1,1,1
			]
		}
	],
	"buffers":[
		{
			"uri":"station_data.bin",
			"byteLength":67425696,
			"name":"main_buffer"
		}
	],
	"bufferViews":[
		{
			"buffer":0,
			"byteLength":7491744,
			"target":34963
		},
		{
			"buffer":0,
			"byteOffset":7491744,
			"byteLength":22475232,
			"target":34962
		},
		{
			"buffer":0,
			"byteOffset":29966976,
			"byteLength":14983488,
			"target":34962
		},
		{
			"buffer":0,
			"byteOffset":44950464,
			"byteLength":22475232,
			"target":34962
		}
	],
	"nodes":[
		{
			"name":"Zenith_OBJ",
			"mesh":0
		}
	],
	"meshes":[
		{
			"primitives":[
				{
					"attributes":{
						"NORMAL":3,
						"TEXCOORD_0":2,
						"POSITION":1
					},
					"indices":0
				}
			]
		}
	],
	"scenes":[
		{
			"nodes":[0
			]
		}
	],
	"scene":0
}
