{
	"asset":{
		"version":"2.0",
		"generator":"Houdini GLTF 2.0 Exporter"
	},
	"accessors":[
		{
			"bufferView":0,
			"componentType":5123,
			"count":1728,
			"type":"SCALAR",
			"min":[0
			],
			"max":[1727
			]
		},
		{
			"bufferView":1,
			"componentType":5126,
			"count":1728,
			"type":"VEC3",
			"min":[-1.5,-0.5,-1.5
			],
			"max":[1.5,0.5,1.5
			]
		},
		{
			"bufferView":2,
			"componentType":5126,
			"count":1728,
			"type":"VEC2",
			"min":[0,0
			],
			"max":[1,1
			]
		},
		{
			"bufferView":3,
			"componentType":5126,
			"count":1728,
			"type":"VEC3",
			"min":[-1,-0.999767661,-1
			],
			"max":[1,0.999767601,1
			]
		}
	],
	"buffers":[
		{
			"uri":"cube_data.bin",
			"byteLength":58752,
			"name":"main_buffer"
		}
	],
	"bufferViews":[
		{
			"buffer":0,
			"byteLength":3456,
			"target":34963
		},
		{
			"buffer":0,
			"byteOffset":3456,
			"byteLength":20736,
			"target":34962
		},
		{
			"buffer":0,
			"byteOffset":24192,
			"byteLength":13824,
			"target":34962
		},
		{
			"buffer":0,
			"byteOffset":38016,
			"byteLength":20736,
			"target":34962
		}
	],
	"nodes":[
		{
			"name":"geo1",
			"mesh":0
		}
	],
	"meshes":[
		{
			"primitives":[
				{
					"attributes":{
						"NORMAL":3,
						"TEXCOORD_0":2,
						"POSITION":1
					},
					"indices":0
				}
			]
		}
	],
	"scenes":[
		{
			"nodes":[0
			]
		}
	],
	"scene":0
}
