{
	"asset":{
		"version":"2.0",
		"generator":"Houdini GLTF 2.0 Exporter"
	},
	"accessors":[
		{
			"bufferView":0,
			"componentType":5121,
			"count":72,
			"type":"SCALAR",
			"min":[0
			],
			"max":[23
			]
		},
		{
			"bufferView":1,
			"componentType":5126,
			"count":24,
			"type":"VEC3",
			"min":[-0.5,-0.5,-0.5
			],
			"max":[0.5,0.5,0.5
			]
		}
	],
	"buffers":[
		{
			"uri":"test_data.bin",
			"byteLength":360,
			"name":"main_buffer"
		}
	],
	"bufferViews":[
		{
			"buffer":0,
			"byteLength":72,
			"target":34963
		},
		{
			"buffer":0,
			"byteOffset":72,
			"byteLength":288,
			"target":34962
		}
	],
	"nodes":[
		{
			"matrix":[1,0,0,0,0,1,0,0,0,0,1,0,-0.0491673946,0.211199045,-0.123274803,1
			],
			"name":"tube_object1",
			"mesh":0
		}
	],
	"meshes":[
		{
			"primitives":[
				{
					"attributes":{
						"POSITION":1
					},
					"indices":0
				}
			]
		}
	],
	"scenes":[
		{
			"nodes":[0
			]
		}
	],
	"scene":0
}
