{
	"asset":{
		"version":"2.0",
		"generator":"Houdini GLTF 2.0 Exporter"
	},
	"accessors":[
		{
			"bufferView":0,
			"componentType":5125,
			"count":742083,
			"type":"SCALAR",
			"min":[0
			],
			"max":[742082
			]
		},
		{
			"bufferView":1,
			"componentType":5126,
			"count":742083,
			"type":"VEC3",
			"min":[-55.9942131,-29.0508823,-33.1678047
			],
			"max":[55.9942207,39.7332764,25.4588776
			]
		},
		{
			"bufferView":2,
			"componentType":5126,
			"count":742083,
			"type":"VEC2",
			"min":[-0.073492825,-0.184243679
			],
			"max":[1.01294446,1.14207959
			]
		},
		{
			"bufferView":3,
			"componentType":5126,
			"count":742083,
			"type":"VEC3",
			"min":[-1,-1,-1
			],
			"max":[1,1,1
			]
		}
	],
	"buffers":[
		{
			"uri":"ISS_stationary_data.bin",
			"byteLength":26714988,
			"name":"main_buffer"
		}
	],
	"bufferViews":[
		{
			"buffer":0,
			"byteLength":2968332,
			"target":34963
		},
		{
			"buffer":0,
			"byteOffset":2968332,
			"byteLength":8904996,
			"target":34962
		},
		{
			"buffer":0,
			"byteOffset":11873328,
			"byteLength":5936664,
			"target":34962
		},
		{
			"buffer":0,
			"byteOffset":17809992,
			"byteLength":8904996,
			"target":34962
		}
	],
	"nodes":[
		{
			"name":"geo1",
			"mesh":0
		}
	],
	"meshes":[
		{
			"primitives":[
				{
					"attributes":{
						"NORMAL":3,
						"TEXCOORD_0":2,
						"POSITION":1
					},
					"indices":0
				}
			]
		}
	],
	"scenes":[
		{
			"nodes":[0
			]
		}
	],
	"scene":0
}
