{
	"asset":{
		"version":"2.0",
		"generator":"Houdini GLTF 2.0 Exporter"
	},
	"accessors":[
		{
			"bufferView":0,
			"componentType":5121,
			"count":108,
			"type":"SCALAR",
			"min":[0
			],
			"max":[107
			]
		},
		{
			"bufferView":1,
			"componentType":5126,
			"count":108,
			"type":"VEC3",
			"min":[-0.5,-5,-0.47552827
			],
			"max":[0.5,5,0.47552824
			]
		},
		{
			"bufferView":2,
			"componentType":5126,
			"count":108,
			"type":"VEC3",
			"min":[-1,-1,-0.9510566
			],
			"max":[1,1,0.9510566
			]
		}
	],
	"buffers":[
		{
			"uri":"tube_data.bin",
			"byteLength":2700,
			"name":"main_buffer"
		}
	],
	"bufferViews":[
		{
			"buffer":0,
			"byteLength":108,
			"target":34963
		},
		{
			"buffer":0,
			"byteOffset":108,
			"byteLength":1296,
			"target":34962
		},
		{
			"buffer":0,
			"byteOffset":1404,
			"byteLength":1296,
			"target":34962
		}
	],
	"nodes":[
		{
			"name":"tube_object1",
			"mesh":0
		}
	],
	"meshes":[
		{
			"primitives":[
				{
					"attributes":{
						"NORMAL":2,
						"POSITION":1
					},
					"indices":0
				}
			]
		}
	],
	"scenes":[
		{
			"nodes":[0
			]
		}
	],
	"scene":0
}
